<?xml version="1.0" encoding="UTF-8"?>
<!DOCTYPE svg PUBLIC "-//W3C//DTD SVG 1.1//EN" "http://www.w3.org/Graphics/SVG/1.1/DTD/svg11.dtd">
<svg xmlns="http://www.w3.org/2000/svg" version="1.1" width="512px" height="512px" style="shape-rendering:geometricPrecision; text-rendering:geometricPrecision; image-rendering:optimizeQuality; fill-rule:evenodd; clip-rule:evenodd" xmlns:xlink="http://www.w3.org/1999/xlink">
<g><path style="opacity:0.992" fill="#dc2e44" d="M 272.5,114.5 C 271.319,106.784 269.819,99.1176 268,91.5C 267.5,84.1742 267.334,76.8409 267.5,69.5C 274.453,33.8885 296.119,14.8885 332.5,12.5C 355.273,12.5561 373.94,21.2227 388.5,38.5C 410.141,14.3453 436.474,7.17862 467.5,17C 492.908,27.2942 507.075,46.1275 510,73.5C 510.644,88.6162 508.311,103.283 503,117.5C 494.445,139.627 482.111,159.294 466,176.5C 449.467,194.987 430.634,210.487 409.5,223C 402.737,226.715 395.737,229.882 388.5,232.5C 376.456,227.979 365.123,222.145 354.5,215C 326.159,194.662 302.659,169.828 284,140.5C 279.868,131.929 276.035,123.262 272.5,114.5 Z"/></g>
<g><path style="opacity:0.976" fill="#f3aab9" d="M 267.5,69.5 C 267.334,76.8409 267.5,84.1742 268,91.5C 269.819,99.1176 271.319,106.784 272.5,114.5C 207.59,111.374 144.923,121.541 84.5,145C 58.7181,155.154 36.5514,170.321 18,190.5C 11.9757,198.545 6.97565,207.212 3,216.5C 3.47514,207.397 5.80847,198.73 10,190.5C 15.9973,178.497 22.9973,167.163 31,156.5C 47.8094,138.677 66.6428,123.51 87.5,111C 143.599,80.8098 203.599,66.9765 267.5,69.5 Z"/></g>
<g><path style="opacity:0.995" fill="#dd2e43" d="M 336.5,346.5 C 334.549,347.716 333.049,349.382 332,351.5C 322.736,371.714 310.736,390.047 296,406.5C 295.209,407.745 294.709,409.078 294.5,410.5C 283.429,423.074 271.762,435.241 259.5,447C 248.523,454.982 237.856,463.316 227.5,472C 211.695,482.904 194.695,491.738 176.5,498.5C 157.837,491.67 140.503,482.504 124.5,471C 88.8567,445.567 58.69,414.734 34,378.5C 13.7533,348.26 2.58666,314.927 0.5,278.5C 2.09594,241.143 18.7626,212.976 50.5,194C 89.8082,175.507 126.808,179.174 161.5,205C 166.393,210.636 171.393,216.136 176.5,221.5C 193.105,199.689 215.105,186.855 242.5,183C 295.135,179.549 330.635,202.383 349,251.5C 354.046,273.976 353.379,296.309 347,318.5C 344.168,328.173 340.668,337.506 336.5,346.5 Z"/></g>
<g><path style="opacity:0.978" fill="#f3aab9" d="M 511.5,235.5 C 511.5,242.5 511.5,249.5 511.5,256.5C 506.896,282.709 496.062,306.043 479,326.5C 464.305,342.531 447.805,356.365 429.5,368C 387.857,392.49 342.857,406.657 294.5,410.5C 294.709,409.078 295.209,407.745 296,406.5C 310.736,390.047 322.736,371.714 332,351.5C 333.049,349.382 334.549,347.716 336.5,346.5C 369.764,340.931 402.097,331.765 433.5,319C 452.079,310.225 469.079,299.225 484.5,286C 498.675,271.811 507.675,254.978 511.5,235.5 Z"/></g>
</svg>
