<?xml version="1.0" encoding="UTF-8"?>
<!DOCTYPE svg PUBLIC "-//W3C//DTD SVG 1.1//EN" "http://www.w3.org/Graphics/SVG/1.1/DTD/svg11.dtd">
<svg xmlns="http://www.w3.org/2000/svg" version="1.1" width="192px" height="192px" style="shape-rendering:geometricPrecision; text-rendering:geometricPrecision; image-rendering:optimizeQuality; fill-rule:evenodd; clip-rule:evenodd" xmlns:xlink="http://www.w3.org/1999/xlink">
<g><path style="opacity:0.983" fill="#dd2e43" d="M 191.5,22.5 C 191.5,27.5 191.5,32.5 191.5,37.5C 183.486,60.8317 168.153,77.4984 145.5,87.5C 125.123,78.4565 110.456,63.7898 101.5,43.5C 100.201,37.5909 99.5348,31.5909 99.5,25.5C 102.157,11.8491 110.49,4.51572 124.5,3.5C 133.172,3.35232 140.006,6.68565 145,13.5C 157.642,1.52792 170.808,0.861254 184.5,11.5C 187.39,14.8762 189.723,18.5428 191.5,22.5 Z"/></g>
<g><path style="opacity:0.954" fill="#f4aab9" d="M 99.5,25.5 C 99.5348,31.5909 100.201,37.5909 101.5,43.5C 70.8694,41.7664 42.2027,48.2664 15.5,63C 12.3604,66.1396 9.19371,69.3063 6,72.5C 4.51859,75.11 3.35192,77.7766 2.5,80.5C 1.5,80.5 0.5,80.5 -0.5,80.5C -0.5,79.8333 -0.5,79.1667 -0.5,78.5C 5.34332,63.016 15.3433,50.8493 29.5,42C 51.2137,29.9058 74.547,24.4058 99.5,25.5 Z"/></g>
<g><path style="opacity:0.988" fill="#dd2d43" d="M 127.5,128.5 C 124.375,131.631 121.875,135.297 120,139.5C 116.146,144.162 112.979,149.162 110.5,154.5C 98.4389,168.977 83.6055,179.977 66,187.5C 32.2642,172.606 10.0976,147.606 -0.5,112.5C -0.5,107.167 -0.5,101.833 -0.5,96.5C 7.25701,73.2881 23.257,64.1215 47.5,69C 54.7563,71.5455 60.9229,75.7121 66,81.5C 77.1146,68.7529 90.9479,64.5862 107.5,69C 123.323,75.4549 131.656,87.2883 132.5,104.5C 132.091,112.796 130.425,120.796 127.5,128.5 Z"/></g>
<g><path style="opacity:0.963" fill="#f4aab9" d="M 191.5,87.5 C 191.5,92.1667 191.5,96.8333 191.5,101.5C 188.839,108.484 185.339,115.151 181,121.5C 168.985,134.591 154.485,143.758 137.5,149C 128.608,151.436 119.608,153.269 110.5,154.5C 112.979,149.162 116.146,144.162 120,139.5C 121.875,135.297 124.375,131.631 127.5,128.5C 147.048,125.718 164.715,118.551 180.5,107C 183,103.833 185.5,100.667 188,97.5C 188.701,93.8909 189.868,90.5575 191.5,87.5 Z"/></g>
</svg>
