<?xml version="1.0" encoding="UTF-8"?>
<!DOCTYPE svg PUBLIC "-//W3C//DTD SVG 1.1//EN" "http://www.w3.org/Graphics/SVG/1.1/DTD/svg11.dtd">
<svg xmlns="http://www.w3.org/2000/svg" version="1.1" width="180px" height="180px" style="shape-rendering:geometricPrecision; text-rendering:geometricPrecision; image-rendering:optimizeQuality; fill-rule:evenodd; clip-rule:evenodd" xmlns:xlink="http://www.w3.org/1999/xlink">
<g><path style="opacity:0.984" fill="#dc2d43" d="M 179.5,21.5 C 179.5,25.8333 179.5,30.1667 179.5,34.5C 172.958,53.5624 160.958,68.3958 143.5,79C 141.04,79.9813 138.54,80.8146 136,81.5C 124.631,76.9699 114.964,69.9699 107,60.5C 104.667,57.5 102.333,54.5 100,51.5C 97.9525,48.0698 96.4525,44.4031 95.5,40.5C 94.3504,34.8976 93.6837,29.2309 93.5,23.5C 96.1495,11.1901 103.816,4.52342 116.5,3.5C 124.399,3.58701 130.899,6.58701 136,12.5C 143.982,4.49581 153.482,1.99581 164.5,5C 171.837,8.49792 176.837,13.9979 179.5,21.5 Z"/></g>
<g><path style="opacity:0.956" fill="#f4aab9" d="M 93.5,23.5 C 93.6837,29.2309 94.3504,34.8976 95.5,40.5C 66.649,38.9645 39.649,45.1312 14.5,59C 9.1951,63.2991 5.02843,68.4658 2,74.5C 1.32924,75.2524 0.495904,75.5858 -0.5,75.5C -0.5,74.8333 -0.5,74.1667 -0.5,73.5C 8.1529,52.3556 23.4862,38.1889 45.5,31C 61.0369,25.7237 77.0369,23.2237 93.5,23.5 Z"/></g>
<g><path style="opacity:0.988" fill="#dd2d43" d="M 119.5,120.5 C 114.17,128.492 108.836,136.492 103.5,144.5C 92.1154,158.109 78.282,168.443 62,175.5C 53.5864,172.197 45.7531,167.864 38.5,162.5C 25.6939,152.527 15.1939,140.527 7,126.5C 3.88882,119.633 1.38882,112.633 -0.5,105.5C -0.5,100.5 -0.5,95.5 -0.5,90.5C 7.89951,66.9666 24.2328,58.7999 48.5,66C 53.6332,68.6541 58.1332,72.1541 62,76.5C 71.3212,65.6129 83.1545,61.4462 97.5,64C 114.278,69.1151 123.278,80.4485 124.5,98C 123.526,105.688 121.859,113.188 119.5,120.5 Z"/></g>
<g><path style="opacity:0.962" fill="#f4aab9" d="M 179.5,82.5 C 179.5,86.8333 179.5,91.1667 179.5,95.5C 170.845,116.647 155.511,130.814 133.5,138C 123.706,141.132 113.706,143.299 103.5,144.5C 108.836,136.492 114.17,128.492 119.5,120.5C 135.331,118.384 149.998,113.217 163.5,105C 171.449,99.2393 176.783,91.7393 179.5,82.5 Z"/></g>
</svg>
