<?xml version="1.0" encoding="UTF-8"?>
<!DOCTYPE svg PUBLIC "-//W3C//DTD SVG 1.1//EN" "http://www.w3.org/Graphics/SVG/1.1/DTD/svg11.dtd">
<svg xmlns="http://www.w3.org/2000/svg" version="1.1" width="32px" height="32px" style="shape-rendering:geometricPrecision; text-rendering:geometricPrecision; image-rendering:optimizeQuality; fill-rule:evenodd; clip-rule:evenodd" xmlns:xlink="http://www.w3.org/1999/xlink">
<g><path style="opacity:0.94" fill="#dd2d43" d="M 18.5,-0.5 C 19.5,-0.5 20.5,-0.5 21.5,-0.5C 22.8333,0.833333 24.1667,0.833333 25.5,-0.5C 26.5,-0.5 27.5,-0.5 28.5,-0.5C 29.2905,0.40128 30.2905,1.06795 31.5,1.5C 31.5,3.83333 31.5,6.16667 31.5,8.5C 30.0226,10.807 28.0226,12.6403 25.5,14C 24.2161,14.6838 23.0495,14.5171 22,13.5C 22.7916,15.8462 22.6249,18.1795 21.5,20.5C 20.1103,21.8993 19.1103,23.5659 18.5,25.5C 16.1667,27.5 13.8333,29.5 11.5,31.5C 10.8333,31.5 10.1667,31.5 9.5,31.5C 5.83333,28.5 2.5,25.1667 -0.5,21.5C -0.5,18.8333 -0.5,16.1667 -0.5,13.5C 0.166667,13.5 0.5,13.1667 0.5,12.5C 1.16667,12.5 1.5,12.1667 1.5,11.5C 2.16667,11.5 2.5,11.1667 2.5,10.5C 2.83333,10.5 3.16667,10.5 3.5,10.5C 6.27237,10.22 8.77237,10.8866 11,12.5C 12.9162,11.0722 15.0829,10.0722 17.5,9.5C 17.1373,8.81654 16.8039,8.14987 16.5,7.5C 16.7678,5.90097 16.4345,4.56764 15.5,3.5C 16.5,2.16667 17.5,0.833333 18.5,-0.5 Z"/></g>
<g><path style="opacity:0.781" fill="#f0a7b5" d="M 15.5,3.5 C 16.4345,4.56764 16.7678,5.90097 16.5,7.5C 11.6882,6.96451 7.35483,7.96451 3.5,10.5C 3.16667,10.5 2.83333,10.5 2.5,10.5C 1.83333,10.5 1.5,10.8333 1.5,11.5C 0.833333,11.5 0.5,11.8333 0.5,12.5C 0.5,13.1667 0.166667,13.5 -0.5,13.5C -0.5,12.5 -0.5,11.5 -0.5,10.5C 3.56216,5.47309 8.89549,3.13975 15.5,3.5 Z"/></g>
<g><path style="opacity:0.809" fill="#f3a9b9" d="M 31.5,13.5 C 31.5,15.1667 31.5,16.8333 31.5,18.5C 28.2539,22.6266 23.9205,24.96 18.5,25.5C 19.1103,23.5659 20.1103,21.8993 21.5,20.5C 26.363,20.09 29.6963,17.7567 31.5,13.5 Z"/></g>
</svg>
