<?xml version="1.0" encoding="UTF-8"?>
<!DOCTYPE svg PUBLIC "-//W3C//DTD SVG 1.1//EN" "http://www.w3.org/Graphics/SVG/1.1/DTD/svg11.dtd">
<svg xmlns="http://www.w3.org/2000/svg" version="1.1" width="16px" height="16px" style="shape-rendering:geometricPrecision; text-rendering:geometricPrecision; image-rendering:optimizeQuality; fill-rule:evenodd; clip-rule:evenodd" xmlns:xlink="http://www.w3.org/1999/xlink">
<g><path style="opacity:0.88" fill="#dd2f44" d="M 8.5,-0.5 C 10.8333,-0.5 13.1667,-0.5 15.5,-0.5C 15.5,1.16667 15.5,2.83333 15.5,4.5C 13.5,5.83333 11.8333,7.5 10.5,9.5C 9.89022,10.391 9.55688,11.391 9.5,12.5C 8.16667,13.1667 7.16667,14.1667 6.5,15.5C 5.5,15.5 4.5,15.5 3.5,15.5C 2.5,13.8333 1.16667,12.5 -0.5,11.5C -0.5,9.5 -0.5,7.5 -0.5,5.5C 1.11723,4.962 2.7839,4.62867 4.5,4.5C 4.43456,4.93822 4.60123,5.27155 5,5.5C 5.9947,4.93406 6.82803,4.26739 7.5,3.5C 7.5,2.83333 7.5,2.16667 7.5,1.5C 7.83333,0.833333 8.16667,0.166667 8.5,-0.5 Z"/></g>
<g><path style="opacity:0.559" fill="#f6b6c2" d="M 7.5,1.5 C 7.5,2.16667 7.5,2.83333 7.5,3.5C 6.20895,3.26269 5.20895,3.59603 4.5,4.5C 2.7839,4.62867 1.11723,4.962 -0.5,5.5C -0.5,5.16667 -0.5,4.83333 -0.5,4.5C 1.54517,2.01558 4.21184,1.01558 7.5,1.5 Z"/></g>
<g><path style="opacity:0.653" fill="#f4a2bb" d="M 15.5,6.5 C 15.5,7.83333 15.5,9.16667 15.5,10.5C 13.7028,11.7298 11.7028,12.3964 9.5,12.5C 9.55688,11.391 9.89022,10.391 10.5,9.5C 12.674,9.25027 14.3406,8.25027 15.5,6.5 Z"/></g>
</svg>
